<?xml version="1.0" encoding="utf-8"?>
<!-- Generator: Adobe Illustrator 28.0.0, SVG Export Plug-In . SVG Version: 6.00 Build 0)  -->
<svg version="1.1" id="Layer_1" xmlns="http://www.w3.org/2000/svg" xmlns:xlink="http://www.w3.org/1999/xlink" x="0px" y="0px"
	 viewBox="0 0 1920 409.4" style="enable-background:new 0 0 1920 409.4;" xml:space="preserve">
<style type="text/css">
	.st0{fill:#00CA00;}
</style>
<g>
	<path d="M20.6,390.5v-48c9.3,1.7,16.9,2.5,27,2.5c23.2,0,33.3-13.5,33.3-35.8V98.1h64v214.4c0,51.8-29.1,82.2-77.9,82.2
		C40,394.7,25.6,391.8,20.6,390.5z"/>
	<path d="M176.8,221.5V98.1h64V214c0,29.1,16,42.6,43.4,42.6c34.5,0,55.2-22.8,55.2-68.3V98.1h64v208.1h-64
		c1.3-14.3,2.5-31.6,3-54.3h-0.8c-9.3,40-37.5,57.7-77.1,57.7C210.5,309.6,176.8,282.6,176.8,221.5z"/>
	<path d="M437.6,98.1h64l-2.5,55.2h0.8c10.5-39.6,35-58.6,82.2-58.6c50.1,0,82.6,27.4,82.6,81.3v130.2h-64V190.4
		c0-29.5-16.9-42.6-45.1-42.6c-33.7,0-53.9,19.8-53.9,59.4v99h-64V98.1z"/>
	<path d="M709.1,234.6v-86.8h-30.8V98.1h24.9c9.7,0,13.1-5.5,14.3-18.1l3-29.1h52.7v47.2h66.6v49.7h-66.6v83.4
		c0,21.5,10.1,28.2,35.4,28.2c8.8,0,21.9-1.3,29.1-2.9V305c-5.5,1.3-23.2,4.6-40.4,4.6C732.3,309.6,709.1,281,709.1,234.6z"/>
	<path d="M853.5,202.6c0-67.8,44.7-107.9,113.3-107.9c68.7,0,113.3,40,113.3,107.9c0,67.4-44.7,107-113.3,107
		C898.2,309.6,853.5,270,853.5,202.6z M1016.1,202.6c0-37.1-18.1-59-49.3-59c-31.2,0-49.3,21.9-49.3,59c0,36.7,18.1,58.1,49.3,58.1
		C998,260.7,1016.1,239.2,1016.1,202.6z"/>
	<path d="M1266.1,98.1h64l-1.3,42.6h0.4c8-28.6,34.5-45.9,70.4-45.9c58.1,0,96.1,41.3,96.1,102.8c0,67.4-37.9,112.1-96.5,112.1
		c-37.9,0-61.5-15.6-70.8-40.9h-0.4c0.8,13.9,2.1,34.5,2.1,42.1v78.8h-64V98.1z M1432.1,200.1c0-33.7-19.4-56.5-48.5-56.5
		c-32,0-53.5,23.2-53.5,58.1v9.3c0,29.9,21.5,49.7,53.9,49.7C1412.7,260.7,1432.1,236.3,1432.1,200.1z"/>
	<path d="M1727.4,214.4h-147.9c2.9,34.1,20.2,48.9,48.9,48.9c24.9,0,40.9-8.8,42.6-29.1h56.5c-1.3,47.6-40.9,75.4-100.3,75.4
		c-69.1,0-112.1-39.2-112.1-105.3c0-68.7,43-109.5,113.3-109.5c58.1,0,99,33.3,99,101.5V214.4z M1670.9,176.9
		c0-23.6-16-35.8-42.6-35.8c-27,0-42.1,11.8-47.2,39.2h89.7V176.9z"/>
	<path d="M1768.7,234.6v-86.8h-30.8V98.1h24.9c9.7,0,13.1-5.5,14.3-18.1l3-29.1h52.7v47.2h66.6v49.7h-66.6v83.4
		c0,21.5,10.1,28.2,35.4,28.2c8.8,0,21.9-1.3,29.1-2.9V305c-5.5,1.3-23.2,4.6-40.4,4.6C1791.9,309.6,1768.7,281,1768.7,234.6z"/>
	<circle class="st0" cx="1168.7" cy="246.4" r="51"/>
	<circle cx="113.6" cy="46" r="32.2"/>
</g>
</svg>
