<?xml version="1.0" encoding="utf-8"?>
<!-- Generator: Adobe Illustrator 28.0.0, SVG Export Plug-In . SVG Version: 6.00 Build 0)  -->
<svg version="1.1" id="Layer_1" xmlns="http://www.w3.org/2000/svg" xmlns:xlink="http://www.w3.org/1999/xlink" x="0px" y="0px"
	 viewBox="0 0 1920 1080" style="enable-background:new 0 0 1920 1080;" xml:space="preserve">
<style type="text/css">
	.st0{fill:#FFFFFF;}
</style>
<g>
	<path class="st0" d="M288.7,672.6v-34.3c6.6,1.2,12,1.8,19.3,1.8c16.6,0,23.8-9.6,23.8-25.6V463.7h45.8v153.2
		c0,37-20.8,58.7-55.7,58.7C302.5,675.6,292.3,673.5,288.7,672.6z"/>
	<path class="st0" d="M400.3,551.9v-88.2h45.8v82.8c0,20.8,11.4,30.4,31,30.4c24.7,0,39.4-16.3,39.4-48.8v-64.4h45.8v148.7h-45.8
		c0.9-10.2,1.8-22.6,2.1-38.8H518c-6.6,28.6-26.8,41.2-55.1,41.2C424.4,614.8,400.3,595.5,400.3,551.9z"/>
	<path class="st0" d="M586.7,463.7h45.8l-1.8,39.4h0.6c7.5-28.3,25-41.8,58.7-41.8c35.8,0,59,19.6,59,58.1v93h-45.8v-82.8
		c0-21.1-12-30.4-32.2-30.4c-24.1,0-38.5,14.1-38.5,42.4v70.8h-45.8V463.7z"/>
	<path class="st0" d="M780.7,561.2v-62h-22v-35.5h17.8c6.9,0,9.3-3.9,10.2-12.9l2.1-20.8h37.6v33.7H874v35.5h-47.6v59.6
		c0,15.4,7.2,20.2,25.3,20.2c6.3,0,15.7-0.9,20.8-2.1v34.6c-3.9,0.9-16.6,3.3-28.9,3.3C797.3,614.8,780.7,594.3,780.7,561.2z"/>
	<path class="st0" d="M883.9,538.3c0-48.5,31.9-77.1,81-77.1c49.1,0,81,28.6,81,77.1c0,48.2-31.9,76.5-81,76.5
		C915.8,614.8,883.9,586.5,883.9,538.3z M1000.1,538.3c0-26.5-12.9-42.2-35.2-42.2c-22.3,0-35.2,15.7-35.2,42.2
		c0,26.2,12.9,41.5,35.2,41.5C987.1,579.9,1000.1,564.5,1000.1,538.3z"/>
	<path class="st0" d="M1178.7,463.7h45.8l-0.9,30.4h0.3c5.7-20.5,24.7-32.8,50.3-32.8c41.6,0,68.6,29.5,68.6,73.5
		c0,48.2-27.1,80.1-68.9,80.1c-27.1,0-44-11.1-50.6-29.2h-0.3c0.6,9.9,1.5,24.7,1.5,30.1V672h-45.8V463.7z M1297.4,536.5
		c0-24.1-13.9-40.3-34.6-40.3c-22.9,0-38.2,16.6-38.2,41.5v6.6c0,21.4,15.4,35.5,38.5,35.5C1283.5,579.9,1297.4,562.4,1297.4,536.5z
		"/>
	<path class="st0" d="M1508.3,546.8h-105.7c2.1,24.4,14.4,34.9,34.9,34.9c17.8,0,29.2-6.3,30.4-20.8h40.3
		c-0.9,34-29.2,53.9-71.7,53.9c-49.4,0-80.1-28-80.1-75.3c0-49.1,30.7-78.3,81-78.3c41.5,0,70.8,23.8,70.8,72.6V546.8z M1468,520
		c0-16.9-11.4-25.6-30.4-25.6c-19.3,0-30.1,8.4-33.7,28h64.1V520z"/>
	<path class="st0" d="M1537.9,561.2v-62h-22v-35.5h17.8c6.9,0,9.3-3.9,10.2-12.9l2.1-20.8h37.6v33.7h47.6v35.5h-47.6v59.6
		c0,15.4,7.2,20.2,25.3,20.2c6.3,0,15.7-0.9,20.8-2.1v34.6c-3.9,0.9-16.6,3.3-28.9,3.3C1554.4,614.8,1537.9,594.3,1537.9,561.2z"/>
	<circle cx="1109.1" cy="569.7" r="36.4"/>
	<circle class="st0" cx="355.1" cy="426.5" r="23"/>
</g>
</svg>
